#!OML:ASF E:\motion texture\Top Level 1\Subject 1\Session 1\male.ASF
:FULLY-SPECIFIED
:DEGREES
317
root -11.4878 17.9949 6.40804 128.618 -88.0673 -122.682
lowerback -1.02291 -2.54043 -2.21606
upperback -2.19011 -3.414 4.11395
thorax -1.30084 -1.677 5.49085
lowerneck -2.73533 -13.4685 -13.9005
upperneck 12.7652 -20.5829 17.216
head 7.62341 -9.88222 5.77972
rclavicle -5.55355e-014 3.33958e-014
rhumerus -23.5724 24.3771 -78.7541
rradius 76.5207
rwrist -27.6554
rhand -1.21068 -39.1669
rfingers 7.12502
rthumb 24.4303 -67.6292
lclavicle -5.55355e-014 3.33958e-014
lhumerus -24.2039 -39.6546 111.193
lradius 61.6511
lwrist 5.98051
lhand -7.4771 21.9083
lfingers 7.12502
lthumb 18.4119 51.0569
rfemur -33.0475 -6.11939 18.9692
rtibia 28.4969
rfoot -4.80319 -16.5294
rtoes 0.217585
lfemur -1.58423 -2.09164 -22.3783
ltibia 14.2213
lfoot -12.1475 0.994241
ltoes -1.97947
318
root -11.6051 17.9913 6.42161 127.175 -88.21 -121.12
lowerback -1.13888 -2.62805 -2.22689
upperback -2.25474 -3.5311 4.13816
thorax -1.28741 -1.73551 5.51713
lowerneck -2.41673 -13.6621 -14.1796
upperneck 12.7781 -20.9436 17.4374
head 7.68921 -10.0749 5.8552
rclavicle -1.9456e-014 1.51076e-014
rhumerus -21.7085 23.0304 -75.9199
rradius 75.5039
rwrist -28.1304
rhand -1.52375 -39.8988
rfingers 7.12502
rthumb 24.1301 -68.4013
lclavicle -1.9456e-014 1.51076e-014
lhumerus -23.7342 -39.5986 110.45
lradius 62.0744
lwrist 4.62561
lhand -6.96493 20.1301
lfingers 7.12502
lthumb 18.9046 49.2315
rfemur -32.8544 -5.84024 18.7602
rtibia 26.1257
rfoot -3.88281 -16.0587
rtoes -1.06665
lfemur -1.19654 -2.02633 -22.5302
ltibia 14.0472
lfoot -12.2331 0.812088
ltoes -2.1383
319
root -11.7237 17.9872 6.43496 125.552 -88.3436 -119.373
lowerback -1.26442 -2.70392 -2.22274
upperback -2.322 -3.63252 4.15959
thorax -1.27403 -1.78637 5.53144
lowerneck -2.09964 -13.8557 -14.4369
upperneck 12.7967 -21.3065 17.6421
head 7.75517 -10.2686 5.92109
rclavicle -9.44227e-016 2.70347e-014
rhumerus -19.8242 21.4456 -73.1048
rradius 74.2436
rwrist -28.6446
rhand -1.89392 -40.5824
rfingers 7.12502
rthumb 23.7751 -69.1315
lclavicle -9.44227e-016 2.70347e-014
lhumerus -23.27 -39.5276 109.687
lradius 62.4485
lwrist 3.34329
lhand -6.62254 18.6017
lfingers 7.12502
lthumb 19.2338 47.6706
rfemur -32.6226 -5.45101 18.512
rtibia 23.7576
rfoot -2.84675 -15.6787
rtoes -2.45898
lfemur -0.806159 -1.98116 -22.6731
ltibia 13.8675
lfoot -12.3123 0.637925
ltoes -2.31487
320
root -11.8426 17.9826 6.44739 123.078 -88.4851 -116.76
lowerback -1.39255 -2.77635 -2.21881
upperback -2.40315 -3.72932 4.17975
thorax -1.27411 -1.8345 5.54475
lowerneck -1.77782 -14.0419 -14.6883
upperneck 12.8222 -21.6639 17.8427
head 7.82239 -10.46 5.98543
rclavicle 7.45443e-017 3.10104e-014
rhumerus -17.9427 19.6357 -70.3502
rradius 72.7389
rwrist -29.171
rhand -2.26576 -41.2518
rfingers 7.12502
rthumb 23.4185 -69.8468
lclavicle 7.45443e-017 3.10104e-014
lhumerus -22.827 -39.4267 108.919
lradius 62.7877
lwrist 2.25058
lhand -6.36675 17.3689
lfingers 7.12502
lthumb 19.4798 46.4131
rfemur -32.3709 -4.95347 18.2094
rtibia 21.4152
rfoot -1.72221 -15.4533
rtoes -3.82607
lfemur -0.445828 -1.94957 -22.8066
ltibia 13.7104
lfoot -12.3862 0.442969
ltoes -2.54123
321
root -11.9627 17.9775 6.45917 119.621 -88.6238 -113.163
lowerback -1.5193 -2.84087 -2.20903
upperback -2.48772 -3.81566 4.20134
thorax -1.27992 -1.87734 5.55637
lowerneck -1.46466 -14.2273 -14.9288
upperneck 12.8533 -22.0208 18.0305
head 7.89196 -10.6508 6.04282
rclavicle 2.80535e-014 -1.51076e-014
rhumerus -16.0847 17.6152 -67.6802
rradius 71.0211
rwrist -29.7301
rhand -2.66307 -41.9289
rfingers 7.12502
rthumb 23.0373 -70.572
lclavicle 2.80535e-014 -1.51076e-014
lhumerus -22.4019 -39.2944 108.157
lradius 63.0822
lwrist 1.3558
lhand -6.19013 16.4335
lfingers 7.12502
lthumb 19.6496 45.4604
rfemur -32.0868 -4.35086 17.8581
rtibia 19.1196
rfoot -0.543778 -15.4085
rtoes -5.10265
lfemur -0.0904958 -1.93231 -22.9279
ltibia 13.5661
lfoot -12.457 0.236969
ltoes -2.77981
322
root -12.0829 17.9716 6.46967 114.175 -88.7678 -107.563
lowerback -1.63316 -2.90277 -2.2036
upperback -2.58459 -3.89848 4.22343
thorax -1.30575 -1.91779 5.57211
lowerneck -1.16982 -14.4121 -15.1572
upperneck 12.8927 -22.3771 18.2065
head 7.9663 -10.8401 6.09264
rclavicle -3.66012e-014 1.35174e-014
rhumerus -14.2726 15.3942 -65.1222
rradius 69.1078
rwrist -30.3536
rhand -3.08656 -42.6864
rfingers 7.12502
rthumb 22.6309 -71.3796
lclavicle -3.66012e-014 1.35174e-014
lhumerus -22.0125 -39.1257 107.414
lradius 63.3212
lwrist 0.606969
lhand -6.11382 15.7691
lfingers 7.12502
lthumb 19.7229 44.7885
rfemur -31.801 -3.66685 17.4571
rtibia 16.9175
rfoot 0.607775 -15.5731
rtoes -6.20127
lfemur 0.231909 -1.92329 -23.0379
ltibia 13.457
lfoot -12.5304 -0.00139139
ltoes -3.05589
323
root -12.2035 17.965 6.47899 105.726 -88.9019 -98.9515
lowerback -1.73732 -2.96436 -2.19655
upperback -2.69095 -3.98099 4.24754
thorax -1.34681 -1.95771 5.5899
lowerneck -0.896888 -14.587 -15.3825
upperneck 12.9476 -22.7213 18.3776
head 8.04818 -11.0221 6.13997
rclavicle 4.1223e-014 -3.81667e-014
rhumerus -12.5217 12.9837 -62.6976
rradius 67.0308
rwrist -31.0668
rhand -3.5905 -43.5957
rfingers 7.12502
rthumb 22.1471 -72.3471
lclavicle 4.1223e-014 -3.81667e-014
lhumerus -21.6527 -38.9159 106.689
lradius 63.4845
lwrist -0.0370984
lhand -6.118 15.3275
lfingers 7.12502
lthumb 19.7189 44.3473
rfemur -31.5345 -2.95004 17.0303
rtibia 14.8753
rfoot 1.61924 -15.9208
rtoes -7.1747
lfemur 0.521325 -1.93077 -23.1341
ltibia 13.3896
lfoot -12.61 -0.261579
ltoes -3.36337
324
root -12.327 17.958 6.48882 97.2776 -88.9891 -90.3595
lowerback -1.8385 -3.00596 -2.15581
upperback -2.7908 -4.03721 4.27126
thorax -1.38803 -1.98514 5.58855
lowerneck -0.647726 -14.7528 -15.5909
upperneck 13.0178 -23.0487 18.5208
head 8.13206 -11.1947 6.17614
rclavicle -5.18331e-014 5.96354e-014
rhumerus -10.8273 10.3744 -60.4308
rradius 64.7929
rwrist -31.8591
rhand -4.09631 -44.5015
rfingers 7.12502
rthumb 21.6615 -73.3097
lclavicle -5.18331e-014 5.96354e-014
lhumerus -21.3391 -38.6426 105.997
lradius 63.5691
lwrist -0.59934
lhand -6.17024 15.0964
lfingers 7.12502
lthumb 19.6687 44.1214
rfemur -31.2898 -2.2598 16.6415
rtibia 13.0798
rfoot 2.37696 -16.3085
rtoes -8.07859
lfemur 0.841396 -1.94427 -23.2214
ltibia 13.3238
lfoot -12.6869 -0.479691
ltoes -3.69473
325
root -12.451 17.9502 6.49745 86.8025 -89.0355 -79.7319
lowerback -1.93485 -3.04506 -2.10129
upperback -2.89984 -4.0904 4.29923
thorax -1.44245 -2.01102 5.58455
lowerneck -0.41114 -14.9083 -15.7753
upperneck 13.0885 -23.3555 18.6355
head 8.20907 -11.357 6.2019
rclavicle 2.74696e-014 1.82882e-014
rhumerus -9.17938 7.53682 -58.3472
rradius 62.3986
rwrist -32.6597
rhand -4.58279 -45.1161
rfingers 7.12502
rthumb 21.1942 -73.9775
lclavicle 2.74696e-014 1.82882e-014
lhumerus -21.0755 -38.2995 105.342
lradius 63.5631
lwrist -1.07934
lhand -6.3269 15.0075
lfingers 7.12502
lthumb 19.5181 44.0478
rfemur -31.1287 -1.68741 16.3257
rtibia 11.6206
rfoot 2.76266 -16.6637
rtoes -8.98003
lfemur 1.12239 -1.95769 -23.283
ltibia 13.3131
lfoot -12.7692 -0.703594
ltoes -4.04882
326
root -12.5763 17.942 6.50535 76.3533 -89.0383 -69.1341
lowerback -2.02415 -3.07723 -2.02926
upperback -3.01275 -4.13468 4.32973
thorax -1.50691 -2.03263 5.57411
lowerneck -0.191096 -15.0536 -15.9296
upperneck 13.1603 -23.6377 18.709
head 8.27635 -11.5069 6.2128
rclavicle 1.24862e-014 -2.46493e-014
rhumerus -7.56129 4.44767 -56.4646
rradius 59.84
rwrist -33.3079
rhand -4.95934 -45.2927
rfingers 7.12502
rthumb 20.8325 -74.1942
lclavicle 1.24862e-014 -2.46493e-014
lhumerus -20.8683 -37.8728 104.725
lradius 63.475
lwrist -1.46581
lhand -6.49491 15.0391
lfingers 7.12502
lthumb 19.3565 44.0957
rfemur -31.0597 -1.32657 16.136
rtibia 10.5658
rfoot 2.75234 -16.834
rtoes -9.99035
lfemur 1.39208 -1.96433 -23.3264
ltibia 13.3373
lfoot -12.8462 -0.92297
ltoes -4.40494
327
root -12.7029 17.9337 6.51222 66.5907 -88.9985 -59.2289
lowerback -2.10577 -3.10339 -1.94075
upperback -3.12162 -4.17124 4.36165
thorax -1.57345 -2.05079 5.55634
lowerneck -0.000625297 -15.1985 -16.0342
upperneck 13.218 -23.9033 18.7397
head 8.32952 -11.6466 6.20335
rclavicle 3.11719e-014 1.43125e-014
rhumerus -5.95713 1.08051 -54.7974
rradius 57.1342
rwrist -33.6475
rhand -5.13513 -44.9198
rfingers 7.12502
rthumb 20.6636 -73.8398
lclavicle 3.11719e-014 1.43125e-014
lhumerus -20.7044 -37.3709 104.144
lradius 63.3003
lwrist -1.76447
lhand -6.77241 15.1681
lfingers 7.12502
lthumb 19.0897 44.2513
rfemur -31.0868 -1.24214 16.1114
rtibia 9.94349
rfoot 2.41302 -16.7376
rtoes -11.1342
lfemur 1.64759 -1.96488 -23.3477
ltibia 13.4051
lfoot -12.92 -1.14281
ltoes -4.75995
328
root -12.8283 17.9251 6.51675 55.5596 -88.9081 -48.0338
lowerback -2.17276 -3.14287 -1.87076
upperback -3.24836 -4.22543 4.39594
thorax -1.66343 -2.07691 5.55292
lowerneck 0.18358 -15.3323 -16.1144
upperneck 13.2537 -24.1434 18.7546
head 8.36671 -11.7739 6.18962
rclavicle 1.11941e-014 -8.74653e-015
rhumerus -4.35893 -2.55594 -53.3529
rradius 54.295
rwrist -33.5203
rhand -5.037 -44.0108
rfingers 7.12502
rthumb 20.7579 -72.9205
lclavicle 1.11941e-014 -8.74653e-015
lhumerus -20.594 -36.7695 103.601
lradius 63.0456
lwrist -2.01507
lhand -7.03339 15.3598
lfingers 7.12502
lthumb 18.8387 44.4676
rfemur -31.2306 -1.44315 16.2214
rtibia 9.73323
rfoot 1.86801 -16.4365
rtoes -12.3653
lfemur 1.82235 -1.95548 -23.3535
ltibia 13.566
lfoot -12.9971 -1.42043
ltoes -5.12995
